<svg width="17" height="17" viewBox="0 0 17 17" fill="none" xmlns="http://www.w3.org/2000/svg">
<path fill-rule="evenodd" clip-rule="evenodd" d="M6.07479 6.10013H9.11421V7.56472C9.55204 6.72238 10.6748 5.96555 12.3615 5.96555C15.5949 5.96555 16.3625 7.6423 16.3625 10.7187V16.4163H13.089V11.4193C13.089 9.66738 12.6512 8.67938 11.5366 8.67938C9.99069 8.67938 9.34827 9.74417 9.34827 11.4185V16.4163H6.07479V6.10013ZM0.461588 16.2818H3.73507V5.96555H0.461588V16.2818ZM4.20399 2.60176C4.20411 2.86718 4.1497 3.12999 4.04391 3.37489C3.93812 3.61979 3.78307 3.84191 3.58776 4.02834C3.192 4.40884 2.6563 4.62182 2.09833 4.62051C1.54134 4.62015 1.00688 4.40771 0.610531 4.02913C0.415932 3.84207 0.261403 3.6197 0.155799 3.37477C0.0501947 3.12983 -0.00440887 2.86714 -0.00488281 2.60176C-0.00488281 2.0658 0.216077 1.5528 0.61135 1.17438C1.00735 0.7953 1.54203 0.582771 2.09915 0.583008C2.65727 0.583008 3.19249 0.795966 3.58776 1.17438C3.98222 1.5528 4.20399 2.0658 4.20399 2.60176Z" fill="#007BB6"/>
</svg>
