<svg 
  viewBox="0 0 14 17"
  fill="none"
  xmlns="http://www.w3.org/2000/svg"
  display="flex"
>
  <path
    d="M7.1002 0.900391C2.77921 0.900391 0.520508 3.56039 0.520508 6.50539C0.520508 7.93039 1.30614 9.35539 2.5828 10.1154C2.97562 10.3054 2.87741 10.1154 3.17203 8.97539C3.17203 8.88039 3.17203 8.78539 3.07382 8.69039C1.30614 6.60039 2.77921 2.51539 6.90379 2.51539C12.8943 2.51539 11.7158 10.4954 7.98404 10.4954C7.19841 10.5904 6.51098 10.0204 6.51098 9.26039V8.88039C6.90379 7.83539 7.19841 6.88539 7.29661 5.84039C7.29661 3.84539 4.25227 4.13039 4.25227 6.79039C4.25227 7.26539 4.35048 7.74039 4.54689 8.12039C4.54689 8.12039 3.56484 12.0154 3.36844 12.6804C3.17203 13.8204 3.27023 14.9604 3.46664 16.0054C3.36844 16.1004 3.46664 16.1004 3.46664 16.1004H3.56484C4.25227 15.1504 4.8415 14.2004 5.23432 13.1554C5.33252 12.6804 5.82354 10.9704 5.82354 10.9704C6.31457 11.6354 7.19841 12.0154 8.08225 12.0154C11.1266 12.0154 13.2871 9.45039 13.2871 6.31539C13.2871 3.18039 10.5374 0.900391 7.1002 0.900391Z"
    fill="#CB2056" />
</svg>