<svg 
  viewBox="0 0 20 14" 
  fill="none"
  xmlns="http://www.w3.org/2000/svg"
  display="flex"
>
  <path
    d="M11.6464 5.77241C11.7026 6.1021 11.7428 6.43179 11.7428 6.85945C11.7428 10.5929 9.48397 13.2393 6.08367 13.2393C2.82807 13.2393 0.191406 10.3167 0.191406 6.70801C0.191406 3.09932 2.82807 0.176758 6.08367 0.176758C7.67532 0.176758 9.00166 0.818283 10.0306 1.88754L8.43091 3.5894C7.99681 3.12606 7.23318 2.58254 6.08367 2.58254C4.07404 2.58254 2.43415 4.42697 2.43415 6.70801C2.43415 8.98905 4.07404 10.8335 6.08367 10.8335C8.41483 10.8335 9.29106 8.97122 9.42768 8.0178H6.08367V5.77237H11.6464V5.77241ZM17.3363 5.99137V4.09551H15.6177V5.99137H13.9073V7.89635H15.6177V9.79222H17.3363V7.89635H19.0466V5.99137H17.3363Z"
    fill="#F04D3F" />
</svg>