<svg width="20" height="20" viewBox="0 0 20 20" fill="none" xmlns="http://www.w3.org/2000/svg">
<path fill-rule="evenodd" clip-rule="evenodd" d="M0.833985 2.3637C0.833985 1.95748 0.995356 1.56789 1.2826 1.28065C1.56984 0.993405 1.95943 0.832033 2.36565 0.832033H17.634C17.8353 0.831704 18.0347 0.871086 18.2208 0.947922C18.4068 1.02476 18.5759 1.13754 18.7184 1.27981C18.8608 1.42209 18.9738 1.59105 19.0508 1.77704C19.1278 1.96303 19.1674 2.16239 19.1673 2.3637V17.632C19.1675 17.8334 19.1281 18.0328 19.0511 18.2189C18.9742 18.405 18.8613 18.574 18.719 18.7165C18.5767 18.8589 18.4076 18.9718 18.2216 19.0489C18.0356 19.1259 17.8362 19.1655 17.6348 19.1654H2.36565C2.16444 19.1654 1.9652 19.1257 1.77932 19.0487C1.59343 18.9717 1.42454 18.8588 1.2823 18.7165C1.14007 18.5741 1.02726 18.4052 0.950337 18.2193C0.873412 18.0333 0.833875 17.8341 0.833985 17.6329V2.3637ZM8.09065 7.82203H10.5732V9.0687C10.9315 8.35203 11.8482 7.70703 13.2257 7.70703C15.8665 7.70703 16.4923 9.13453 16.4923 11.7537V16.6054H13.8198V12.3504C13.8198 10.8587 13.4615 10.017 12.5515 10.017C11.289 10.017 10.764 10.9245 10.764 12.3504V16.6054H8.09065V7.82203ZM3.50732 16.4912H6.18065V7.70703H3.50732V16.4904V16.4912ZM6.56315 4.84203C6.56819 5.07093 6.52746 5.29852 6.44335 5.51146C6.35924 5.7244 6.23344 5.9184 6.07334 6.08206C5.91324 6.24572 5.72207 6.37576 5.51103 6.46454C5.29999 6.55332 5.07335 6.59905 4.8444 6.59905C4.61545 6.59905 4.38881 6.55332 4.17777 6.46454C3.96674 6.37576 3.77556 6.24572 3.61546 6.08206C3.45536 5.9184 3.32956 5.7244 3.24545 5.51146C3.16134 5.29852 3.12061 5.07093 3.12565 4.84203C3.13555 4.39275 3.32097 3.96519 3.64222 3.65094C3.96347 3.33668 4.395 3.16071 4.8444 3.16071C5.2938 3.16071 5.72533 3.33668 6.04658 3.65094C6.36783 3.96519 6.55326 4.39275 6.56315 4.84203Z" fill="white"/>
</svg>
