<svg
  viewBox="0 0 103 84"
  fill="none"
  xmlns="http://www.w3.org/2000/svg"
  display="flex"
>
  <path
    d="M10.9612 64.8006C28.5432 69.6562 38.6754 77.4874 42.5737 81.9714C43.0768 82.5501 42.687 83.4032 41.9218 83.4525C29.7977 84.2327 18.4936 81.8513 10.8082 79.3557C5.64025 77.6776 -0.332433 74.2602 0.0104776 68.8375C0.145311 66.7052 1.56476 65.3917 3.29693 64.6451C5.7023 63.6084 8.43647 64.1034 10.9612 64.8006Z"
    fill="#FF6854" />
  <path
    d="M40.8543 10.8069C53.1617 28.0064 53.691 41.3618 53.4635 47.8048C53.4358 48.5906 52.5448 49.0168 51.9142 48.5472C40.3457 39.9315 33.5186 29.1989 29.4376 21.4086C26.9565 16.6724 24.4147 10.4122 27.9584 6.40842C29.9284 4.18255 32.9624 4.7022 35.5622 5.94394C37.753 6.9903 39.4415 8.83253 40.8543 10.8069Z"
    fill="#FF6854" />
  <path
    d="M87.9061 8.83608C91.5879 23.1097 89.2113 34.2059 87.5322 39.1364C87.2788 39.8807 86.315 39.9769 85.8942 39.3128C80.7685 31.2231 78.5525 22.0434 77.5014 15.2349C76.6856 9.95075 76.5568 1.53501 81.9012 1.69491C82.7957 1.72167 83.6583 2.09641 84.4327 2.64653C86.4119 4.05257 87.2997 6.48522 87.9061 8.83608Z"
    fill="#FF6854" />
</svg>